<?xml version="1.0" encoding="UTF-8"?> <svg xmlns="http://www.w3.org/2000/svg" id="Layer_1" viewBox="0 0 256 144"><defs><style>.cls-1{fill:#9964e3;}.cls-2{fill:#1ddbdb;}.cls-3{fill:#3c3364;}</style></defs><g id="Lager_1"><g><g><path class="cls-3" d="M121.03,68.93v-3.51h-2.63v-3.95h-3.66v1.76c0,1.17-.73,2.19-2.05,2.19h-5.41l2.49,3.51h4.54v5.71c0,2.63,1.76,4.24,4.39,4.24,1.32,0,1.9-.29,2.05-.44v-3.36c-.29,0-.59,.15-1.02,.15-.88,0-1.46-.29-1.46-1.46v-4.97h2.78v.15h0Z"></path><path class="cls-3" d="M101.86,74.78c-.59,2.34-2.78,4.24-6.14,4.24-3.66,0-7.02-2.63-7.02-7.17,0-4.24,3.22-7.02,6.73-7.02,4.1,0,6.73,2.49,6.73,6.88,0,.59,0,1.17-.15,1.32h-9.36c.15,1.46,1.46,2.63,3.07,2.63,1.46,0,2.34-.73,2.63-1.76l3.51,.88Zm-3.8-4.39c0-1.02-.73-2.19-2.63-2.19-1.76,0-2.63,1.32-2.63,2.19h5.27Z"></path><path class="cls-3" d="M134.34,74.78c-.59,2.34-2.78,4.24-6.14,4.24-3.66,0-7.02-2.63-7.02-7.17,0-4.24,3.22-7.02,6.73-7.02,4.1,0,6.73,2.49,6.73,6.88,0,.59,0,1.17-.15,1.32h-9.36c.15,1.46,1.46,2.63,3.07,2.63,1.46,0,2.34-.73,2.63-1.76l3.51,.88h0Zm-3.8-4.39c0-1.02-.73-2.19-2.63-2.19-1.76,0-2.63,1.32-2.63,2.19h5.27Z"></path><path class="cls-3" d="M139.61,78.58h-4.1v-13.31h3.95v1.46c.73-1.32,2.34-1.9,3.8-1.9,3.36,0,4.83,2.34,4.83,5.27v8.34h-4.1v-7.61c0-1.32-.73-2.34-2.19-2.34-1.32,0-2.19,1.02-2.19,2.34v7.75h0Z"></path><path class="cls-3" d="M163.16,78.58h-3.95c0-.15-.15-.73-.15-1.32-.59,.88-1.9,1.61-3.51,1.61-3.8,0-6.58-2.93-6.58-7.02s2.63-7.02,6.44-7.02c2.34,0,3.22,.88,3.66,1.32v-4.97h4.1v17.41h0Zm-7.17-3.37c1.61,0,3.07-1.17,3.07-3.36s-1.46-3.36-3.07-3.36-3.07,1.02-3.07,3.36c.15,2.34,1.61,3.36,3.07,3.36Z"></path><path class="cls-3" d="M168.13,70.98l3.07-.44c.73-.15,1.02-.44,1.02-.88,0-.73-.73-1.46-1.9-1.46-1.46,0-2.19,1.02-2.34,1.9l-3.51-.73c.15-1.9,1.9-4.39,5.85-4.39,4.39,0,5.85,2.49,5.85,5.12v6.58c0,1.02,.15,1.9,.15,2.05h-3.66c0-.15-.15-.59-.15-1.46-.73,1.17-2.05,1.9-3.8,1.9-2.93,0-4.68-1.9-4.68-4.1,.15-2.49,1.9-3.8,4.1-4.1h0Zm4.1,2.49v-.59l-2.49,.44c-.88,.15-1.46,.59-1.46,1.46,0,.73,.44,1.32,1.61,1.32,1.02,0,2.34-.59,2.34-2.63Z"></path><path class="cls-3" d="M105.52,72l-4.68-6.73h4.83s7.9,11.26,9.51,13.31h-4.83l-2.49-3.8c-.73,1.02-1.76,2.63-2.49,3.8h-4.54l4.68-6.58h0Z"></path><path class="cls-1" d="M186.42,69.37c-.44-.15-.88-.15-1.32-.15-1.61,0-3.07,1.02-3.07,3.66v5.85h-4.1v-13.31h3.95v1.76c.73-1.46,2.34-1.9,3.51-1.9,.44,0,.88,0,1.02,.15v3.95h0Z"></path><path class="cls-1" d="M199.15,74.78c-.59,2.34-2.78,4.24-6.14,4.24-3.66,0-7.02-2.63-7.02-7.17,0-4.24,3.22-7.02,6.73-7.02,4.1,0,6.73,2.49,6.73,6.88,0,.59,0,1.17-.15,1.32h-9.36c.15,1.46,1.46,2.63,3.07,2.63,1.46,0,2.34-.73,2.63-1.76l3.51,.88Zm-3.66-4.39c0-1.02-.73-2.19-2.63-2.19-1.76,0-2.63,1.32-2.63,2.19h5.27Z"></path><path class="cls-1" d="M205.29,65.27h2.63v3.51h-2.63v4.97c0,1.17,.59,1.46,1.46,1.46,.44,0,.88-.15,1.02-.15v3.36c-.15,.15-.88,.44-2.05,.44-2.78,0-4.39-1.61-4.39-4.24v-5.71h-2.34v-3.51h.73c1.46,0,2.05-.88,2.05-2.19v-1.76h3.66v3.8h-.15Z"></path><path class="cls-1" d="M212.46,70.98l3.07-.44c.73-.15,1.02-.44,1.02-.88,0-.73-.73-1.46-1.9-1.46-1.46,0-2.19,1.02-2.34,1.9l-3.51-.73c.15-1.9,1.9-4.39,5.85-4.39,4.39,0,5.85,2.49,5.85,5.12v6.58c0,1.02,.15,1.9,.15,2.05h-3.66c0-.15-.15-.59-.15-1.46-.73,1.17-2.05,1.9-3.8,1.9-2.93,0-4.68-1.9-4.68-4.1,.15-2.49,1.9-3.8,4.1-4.1h0Zm4.1,2.49v-.59l-2.49,.44c-.88,.15-1.46,.59-1.46,1.46,0,.73,.44,1.32,1.61,1.32s2.34-.59,2.34-2.63Z"></path><path class="cls-1" d="M228.4,78.58v-17.26h4.1v17.26h-4.1Z"></path><path class="cls-1" d="M226.5,65.27v13.31h-4.1v-13.31h4.1Z"></path><path class="cls-1" d="M224.45,63.52c-1.32,0-2.49-1.02-2.49-2.34s1.02-2.34,2.49-2.34c1.32,0,2.34,1.02,2.34,2.34s-1.02,2.34-2.34,2.34Z"></path></g><g><polyline class="cls-3" points="23.5 71.92 34.67 60.75 37.26 63.34 26.09 74.51 23.5 71.92"></polyline><rect class="cls-3" x="31.1" y="74.45" width="15.8" height="3.66" transform="translate(-42.52 49.92) rotate(-45)"></rect><rect class="cls-3" x="26.69" y="70.13" width="15.8" height="3.66" transform="translate(-40.75 45.53) rotate(-45)"></rect><path class="cls-1" d="M45.83,49.47l22.38,22.38-20.77,20.77c-.88,.88-.88,2.34,0,3.36h0l6.14,6.14,30.14-30.14-30.13-30.13-7.75,7.61h0Z"></path><path class="cls-2" d="M36.33,58.98l12.87,12.87-11.26,11.26c-.88,.88-.88,2.34,0,3.36h0l6.14,6.14,20.63-20.63-20.63-20.62-7.75,7.61h0Z"></path></g></g></g></svg> 